<svg width="670" height="49" viewBox="0 0 670 49" fill="none" xmlns="http://www.w3.org/2000/svg">
<path d="M0 0H670V24C670 37.8071 658.807 49 645 49H25C11.1929 49 0 37.8071 0 24V0Z" fill="#3879F0"/>
<path d="M28.3744 27.764C28.2245 27.3093 28.1501 26.7353 28.1501 25.9636C28.1501 25.1915 28.2245 24.6164 28.3744 24.1628C28.7933 22.8614 29.9028 22.1504 31.3555 22.1504C32.4344 22.1504 33.2887 22.5893 33.8586 23.2855C33.9026 23.3456 33.9175 23.4363 33.8434 23.4967L32.8999 24.3291C32.8246 24.39 32.75 24.3749 32.6896 24.2993C32.3297 23.891 31.9552 23.6635 31.3558 23.6635C30.7118 23.6635 30.2178 23.9814 30.0075 24.617C29.8885 24.981 29.8578 25.4042 29.8578 25.9639C29.8578 26.5236 29.8882 26.9622 30.0075 27.3256C30.2175 27.9454 30.7118 28.2633 31.3558 28.2633C31.9552 28.2633 32.3297 28.0361 32.6896 27.6287C32.75 27.552 32.8246 27.552 32.8999 27.6126L33.8434 28.445C33.9175 28.5054 33.9026 28.5812 33.8586 28.6571C33.289 29.3384 32.4347 29.7768 31.3555 29.7768C29.9028 29.7762 28.7933 29.0645 28.3744 27.764Z" fill="white"/>
<path d="M61.1113 27.764C60.9614 27.3093 60.887 26.7353 60.887 25.9636C60.887 25.1915 60.9614 24.6164 61.1113 24.1628C61.531 22.8614 62.6393 22.1504 64.0921 22.1504C65.1712 22.1504 66.0258 22.5893 66.5948 23.2855C66.6395 23.3456 66.6549 23.4363 66.5794 23.4967L65.6356 24.3291C65.5606 24.39 65.4862 24.3749 65.4261 24.2993C65.0668 23.891 64.692 23.6635 64.0921 23.6635C63.4484 23.6635 62.9537 23.9814 62.7443 24.617C62.6241 24.981 62.595 25.4042 62.595 25.9639C62.595 26.5236 62.6241 26.9622 62.7443 27.3256C62.9537 27.9454 63.4484 28.2633 64.0921 28.2633C64.692 28.2633 65.0668 28.0361 65.4261 27.6287C65.4862 27.552 65.5609 27.552 65.6356 27.6126L66.5794 28.445C66.6549 28.5054 66.6395 28.5812 66.5948 28.6571C66.0258 29.3384 65.1712 29.7768 64.0921 29.7768C62.6393 29.7762 61.531 29.0645 61.1113 27.764Z" fill="white"/>
<path d="M98.947 29.6102C98.857 29.6102 98.7975 29.5501 98.7975 29.4586V25.2525C98.7975 24.3142 98.3325 23.6632 97.433 23.6632C96.5645 23.6632 96.055 24.3139 96.055 25.2525V29.4586C96.055 29.5498 95.9945 29.6102 95.9055 29.6102H94.5265C94.4365 29.6102 94.3765 29.5501 94.3765 29.4586V25.2525C94.3765 24.3142 93.912 23.6632 93.014 23.6632C92.145 23.6632 91.635 24.3139 91.635 25.2525V29.4586C91.635 29.5498 91.575 29.6102 91.485 29.6102H90.1065C90.016 29.6102 89.957 29.5501 89.957 29.4586V22.468C89.957 22.377 90.016 22.3163 90.1065 22.3163H91.485C91.575 22.3163 91.635 22.377 91.635 22.468V22.9976H91.65C91.965 22.5435 92.594 22.1504 93.5525 22.1504C94.407 22.1504 95.096 22.4977 95.53 23.1184H95.5455C96.0995 22.5138 96.819 22.1504 97.853 22.1504C99.5305 22.1504 100.475 23.3001 100.475 24.8587V29.4583C100.475 29.5498 100.415 29.6102 100.325 29.6102H98.947Z" fill="white"/>
<path d="M102.557 32.3328C102.468 32.3328 102.408 32.2722 102.408 32.1809V30.9708C102.408 30.8804 102.468 30.8188 102.557 30.8188H102.827C103.396 30.8188 103.682 30.5627 103.906 29.957L104.116 29.3366L101.479 22.4671C101.449 22.3761 101.509 22.3154 101.599 22.3154H103.082C103.172 22.3154 103.232 22.3761 103.261 22.4671L104.895 27.2334H104.925L106.483 22.4671C106.513 22.3761 106.573 22.3154 106.662 22.3154H108.085C108.176 22.3154 108.236 22.3761 108.205 22.4671L105.449 30.0628C104.82 31.788 104.22 32.3323 103.022 32.3323L102.557 32.3328Z" fill="white"/>
<path d="M35.2378 27.7641C35.073 27.2487 34.998 26.7648 34.998 25.963C34.998 25.1624 35.073 24.678 35.2378 24.1646C35.6423 22.8936 36.75 22.1519 38.218 22.1519C39.6705 22.1519 40.7788 22.8933 41.1833 24.1646C41.3472 24.678 41.4228 25.1624 41.4228 25.963C41.4228 26.7648 41.3472 27.2487 41.1833 27.7641C40.7785 29.0342 39.6705 29.7754 38.218 29.7754C36.75 29.7757 35.6423 29.0345 35.2378 27.7641ZM39.5658 27.3102C39.6859 26.9325 39.7157 26.584 39.7157 25.9633C39.7157 25.3444 39.6859 25.0111 39.5658 24.6182C39.3563 24.0136 38.8917 23.6647 38.218 23.6647C37.5445 23.6647 37.0645 24.0136 36.8553 24.6182C36.736 25.0113 36.7057 25.3444 36.7057 25.9633C36.7057 26.584 36.736 26.9325 36.8553 27.3102C37.0645 27.916 37.5448 28.2628 38.218 28.2628C38.8917 28.2625 39.3563 27.9157 39.5658 27.3102Z" fill="white"/>
<path d="M70.6092 22.1504C69.4253 22.1504 68.6317 22.4377 68.0469 22.8614C67.9877 22.9075 67.9723 22.9822 68.0178 23.0577L68.5707 24.057C68.6171 24.1328 68.7058 24.148 68.7813 24.0873C69.1261 23.8155 69.6199 23.5877 70.4295 23.5877C71.6099 23.5877 72.0106 23.9458 72.031 24.733H72.0313V24.7427C72.0319 24.761 72.0319 24.7797 72.0319 24.7992V27.16C72.0319 27.9921 71.4629 28.3998 70.4295 28.3998C69.6199 28.3998 69.1859 28.0979 69.1859 27.493C69.1859 26.8117 69.6656 26.5084 70.7439 26.5084L71.0717 26.509C71.1616 26.509 71.2219 26.4483 71.2219 26.3582V25.3881C71.2219 25.2977 71.1616 25.2373 71.0717 25.2373H70.9997L70.4744 25.237C68.6918 25.237 67.582 25.9644 67.582 27.5522C67.582 29.0809 68.6918 29.7765 70.0095 29.7765C71.0274 29.7765 71.702 29.4288 72.0468 28.9295H72.0614V29.4591C72.0614 29.5501 72.122 29.6108 72.2116 29.6108H73.4698C73.5599 29.6108 73.62 29.5504 73.62 29.4591V24.6928C73.6203 22.9075 72.8115 22.1504 70.6092 22.1504Z" fill="white"/>
<path d="M52.7094 25.2362C52.6703 25.2362 52.6447 25.2621 52.6447 25.3012V25.3444V25.4709V26.2724V26.3801V26.4422C52.6447 26.4813 52.6703 26.5075 52.7094 26.5075H52.7468H56.4194C56.5244 26.5075 56.5845 26.4474 56.5845 26.3573C56.5845 25.1761 56.5089 24.6765 56.3447 24.1625C55.9396 22.9218 54.8613 22.1504 53.3779 22.1504C51.9397 22.1504 50.8314 22.8915 50.4263 24.1625C50.2773 24.6315 50.1865 25.2067 50.1865 25.9633C50.1865 26.7198 50.2915 27.2793 50.4423 27.7488C50.8466 29.0193 51.9249 29.7759 53.4529 29.7759C54.7858 29.7759 55.8054 29.2614 56.4191 28.5352C56.4786 28.4599 56.4786 28.3844 56.4039 28.3231L55.5208 27.5365C55.4452 27.4761 55.3706 27.4919 55.2953 27.5668C54.9363 27.9606 54.4119 28.263 53.6028 28.263C52.7946 28.263 52.2247 27.8699 51.9849 27.1591C51.9488 27.0596 51.9187 26.9552 51.8998 26.8418H51.8995C51.8449 26.5338 51.8129 26.2339 51.8129 25.7935C51.8245 25.3785 51.8484 25.1134 51.9074 24.7765C51.9079 24.7718 51.9088 24.7677 51.9097 24.7634C51.9103 24.7599 51.9109 24.7572 51.9114 24.7537V24.754C51.9257 24.6747 51.9453 24.6 51.9695 24.5257C52.1643 23.9356 52.7036 23.5877 53.3934 23.5877C54.0677 23.5877 54.6061 23.9356 54.8009 24.5257C54.8613 24.7082 54.8908 24.8888 54.8908 25.1466C54.8908 25.207 54.861 25.2367 54.8009 25.2367H52.8325L52.8328 25.2364L52.7094 25.2362Z" fill="white"/>
<path d="M48.7953 19.3213H47.4193C47.3285 19.3213 47.2688 19.3816 47.2688 19.4715V23.0067V25.9303C47.2688 25.9382 47.2688 25.9461 47.2688 25.9537C47.2688 25.9616 47.2688 25.9694 47.2688 25.977V26.3652H47.2612C47.2451 26.7823 47.1999 27.0565 47.1197 27.3134C46.9252 27.9172 46.4606 28.2494 45.7731 28.2494C45.0999 28.2494 44.6365 27.9172 44.4411 27.3134C44.3367 26.9806 44.2923 26.6184 44.2923 25.9537C44.2923 25.2893 44.3367 24.9261 44.4411 24.5945C44.6327 24.0022 45.0813 23.6676 45.7323 23.6545H46.3197C46.3483 23.6475 46.3669 23.625 46.3669 23.5924L46.3745 22.2111C46.3745 22.1758 46.3523 22.1521 46.3197 22.1481L45.8507 22.1463H45.2994V22.1466C44.0934 22.1594 43.2106 22.7474 42.8407 23.898C42.6611 24.4577 42.5864 24.9722 42.5864 25.9537C42.5864 26.9354 42.6611 27.4493 42.8407 28.0079C43.2146 29.1716 44.1124 29.7608 45.3388 29.7608C46.3118 29.7608 46.9103 29.3988 47.2536 28.8995H47.2682V29.4434C47.2682 29.5344 47.3283 29.5948 47.4187 29.5948H48.7947C48.8846 29.5948 48.9446 29.5347 48.9446 29.4434V19.4715C48.9452 19.3813 48.8851 19.3213 48.7953 19.3213Z" fill="white"/>
<path d="M84.8699 25.2362C84.8314 25.2362 84.8049 25.2621 84.8049 25.3012V25.3444V25.4709V26.2724V26.3801V26.4422C84.8049 26.4813 84.8314 26.5075 84.8699 26.5075H84.9079H88.5804C88.6854 26.5075 88.7454 26.4474 88.7454 26.3573C88.7454 25.1761 88.6704 24.6765 88.5059 24.1625C88.1009 22.9218 87.0224 22.1504 85.5394 22.1504C84.1009 22.1504 82.9929 22.8915 82.5874 24.1625C82.4384 24.6315 82.3479 25.2067 82.3479 25.9633C82.3479 26.7198 82.4529 27.2793 82.6034 27.7488C83.0074 29.0193 84.0859 29.7759 85.6139 29.7759C86.9469 29.7759 87.9669 29.2614 88.5804 28.5352C88.6399 28.4599 88.6399 28.3844 88.5654 28.3231L87.6819 27.5365C87.6069 27.4761 87.5319 27.4919 87.4569 27.5668C87.0979 27.9606 86.5739 28.263 85.7639 28.263C84.9559 28.263 84.3864 27.8699 84.1464 27.1591C84.1104 27.0596 84.0799 26.9552 84.0614 26.8418C84.0064 26.5338 83.9744 26.2339 83.9744 25.7935C83.9854 25.3785 84.0094 25.1134 84.0684 24.7765C84.0699 24.7718 84.0704 24.7677 84.0709 24.7634C84.0714 24.7599 84.0719 24.7572 84.0729 24.7537V24.754C84.0874 24.6747 84.1069 24.6 84.1309 24.5257C84.3254 23.9356 84.8649 23.5877 85.5549 23.5877C86.2294 23.5877 86.7679 23.9356 86.9624 24.5257C87.0224 24.7082 87.0524 24.8888 87.0524 25.1466C87.0524 25.207 87.0224 25.2367 86.9624 25.2367H84.9939V25.2364L84.8699 25.2362Z" fill="white"/>
<path d="M81.0255 19.3213H79.647C79.557 19.3213 79.497 19.3819 79.497 19.4718V23.012V25.9403V25.9633V25.9869V26.3757H79.4895C79.473 26.7934 79.4275 27.0678 79.3475 27.3251C79.1525 27.93 78.687 28.2631 77.999 28.2631C77.3255 28.2631 76.861 27.93 76.6655 27.3251C76.561 26.9917 76.5155 26.6292 76.5155 25.9633C76.5155 25.298 76.5605 24.934 76.6655 24.6021C76.857 24.0089 77.3065 23.677 77.9585 23.6638L78.547 23.6641C78.637 23.6641 78.697 23.6037 78.697 23.5136V22.3012C78.697 22.2108 78.637 22.1504 78.547 22.1504H78.475L77.5855 22.1501C77.5785 22.1501 77.5715 22.1501 77.565 22.1501C77.558 22.1501 77.552 22.1501 77.5455 22.1501H77.525V22.1504C76.3175 22.1629 75.4335 22.7521 75.063 23.9045C74.8832 24.465 74.8086 24.9798 74.8086 25.9627C74.8086 26.9459 74.8832 27.461 75.063 28.0204C75.4375 29.1853 76.337 29.7756 77.565 29.7756C78.5395 29.7756 79.1385 29.4134 79.483 28.9132H79.4975V29.4577C79.4975 29.5493 79.5575 29.6094 79.648 29.6094H81.0265C81.116 29.6094 81.1765 29.5496 81.1765 29.4577V19.4718C81.1755 19.3816 81.115 19.3213 81.0255 19.3213Z" fill="white"/>
<path d="M60.9988 31.6728V33.0515C60.9988 33.1422 61.0588 33.2024 61.149 33.2024H66.2577C66.349 33.2024 66.4094 33.1419 66.4094 33.0515V31.6728C66.4094 31.5833 66.349 31.5229 66.2577 31.5229H61.149C61.0588 31.5229 60.9988 31.5833 60.9988 31.6728Z" fill="white"/>
<path d="M59.7018 15.7509C59.6994 15.7485 59.6979 15.7456 59.6959 15.7436C59.6956 15.7433 59.6953 15.7433 59.6953 15.7433C59.6691 15.7173 59.6317 15.7021 59.5874 15.7021H59.5857H25.1505C25.1391 15.7021 25.1283 15.7033 25.1178 15.7051C25.1149 15.7056 25.1123 15.7068 25.1091 15.7074C25.1024 15.7091 25.0951 15.7106 25.089 15.7132C25.0878 15.7135 25.0869 15.7141 25.086 15.7147C25.0327 15.7366 25 15.7864 25 15.8524V15.8529V33.0494V33.0505C25 33.103 25.0204 33.1441 25.0548 33.1704C25.0575 33.173 25.0598 33.1753 25.0633 33.1771V33.1774C25.0872 33.1926 25.1164 33.2007 25.1505 33.2007H59.5854H59.5871C59.6379 33.2007 59.679 33.1812 59.7049 33.1476C59.7253 33.1226 59.7373 33.0896 59.7373 33.0502V33.0491V15.8529V15.8524C59.7373 15.8112 59.7242 15.7765 59.7018 15.7509ZM26.8276 31.5222C26.8168 31.5222 26.8063 31.5213 26.7969 31.5199C26.794 31.5193 26.7908 31.5178 26.7879 31.517C26.7809 31.5155 26.7739 31.514 26.7675 31.5114C26.7663 31.5111 26.7657 31.5102 26.7646 31.51C26.7115 31.4884 26.6791 31.4388 26.6788 31.3735V18.909V17.5308C26.6788 17.4646 26.7115 17.4154 26.7646 17.3932C26.766 17.3929 26.7669 17.392 26.7678 17.3917C26.7739 17.3894 26.7937 17.3844 26.7969 17.3836C26.8068 17.3821 26.8174 17.3812 26.8281 17.3812H57.9089C57.92 17.3812 57.9302 17.3821 57.9401 17.3836C57.9433 17.3844 57.9462 17.3856 57.9488 17.3865C57.9558 17.3879 57.9628 17.3894 57.9692 17.392C57.9707 17.3923 57.9713 17.3932 57.9725 17.3935C58.0258 17.4154 58.0582 17.4649 58.0582 17.5311V31.3737C58.0579 31.4394 58.0253 31.489 57.9728 31.5105C57.9716 31.5108 57.971 31.5117 57.9696 31.512C57.9635 31.5143 57.9562 31.5161 57.9495 31.5175C57.9462 31.5184 57.9436 31.5199 57.9404 31.5205C57.9305 31.5222 57.9208 31.5228 57.91 31.5228H26.8276V31.5222Z" fill="white"/>
<path d="M176.611 21.6681H178.945L175.628 30.0235H173.539L170.16 21.6681H172.556L174.583 27.2589L176.611 21.6681ZM179.682 29.9621H181.956V21.6681H179.682V29.9621ZM183 27.2589H185.273C185.335 27.8118 185.703 28.3647 186.686 28.3647C187.546 28.3647 187.976 28.0576 187.976 27.6275C187.976 26.2144 183.369 27.5661 183.369 24.2485C183.369 22.7125 184.659 21.4838 186.686 21.4838C189.205 21.4838 190.065 23.0812 190.127 24.3099H187.976C187.915 23.757 187.546 23.3269 186.748 23.3269C186.01 23.3269 185.58 23.6955 185.58 24.1256C185.58 25.5386 190.188 24.1256 190.188 27.5661C190.188 29.0405 188.898 30.2078 186.686 30.2078C184.044 30.1464 183.123 28.8562 183 27.2589ZM191.294 29.9621H193.567V21.6681H191.294V29.9621ZM198.912 28.1804C200.079 28.1804 201.001 27.3203 201.001 25.7844C201.001 24.3099 200.079 23.3883 198.912 23.3883C197.745 23.3883 196.823 24.2485 196.823 25.7844C196.823 27.3203 197.745 28.1804 198.912 28.1804ZM194.55 25.7844C194.55 23.3883 196.27 21.4224 198.912 21.4224C201.554 21.4224 203.274 23.3883 203.274 25.7844C203.274 28.1804 201.554 30.1464 198.912 30.1464C196.27 30.1464 194.55 28.1804 194.55 25.7844ZM206.407 22.6511C206.776 21.9139 207.636 21.4224 208.865 21.4224C210.892 21.4224 211.937 22.774 211.937 24.74V29.9621H209.664V24.9857C209.664 24.0027 209.234 23.3269 208.251 23.3269C207.145 23.3269 206.53 24.0027 206.53 25.17V29.9621H204.257V21.6681H206.407V22.6511Z" fill="white"/>
<path d="M150.5 35H171.45V14.05H150.5V35Z" fill="white"/>
<path d="M157.872 20.6239C158.548 20.6239 159.101 20.1324 159.101 19.3951C159.101 18.7193 158.548 18.1664 157.872 18.1664C157.197 18.1664 156.644 18.6579 156.644 19.3951C156.644 20.1324 157.197 20.6239 157.872 20.6239ZM155.292 27.1362C155.231 27.4434 155.169 27.7505 155.169 28.0577C155.169 29.1022 155.722 29.8394 156.951 29.8394C157.995 29.8394 158.794 29.225 159.408 28.242L159.04 29.7165H161.067L162.234 25.1088C162.542 23.9415 163.095 23.3271 163.955 23.3271C164.63 23.3271 165.061 23.7571 165.061 24.433C165.061 24.6173 165.061 24.863 164.999 25.1088L164.385 27.2591C164.323 27.5662 164.262 27.8734 164.262 28.1806C164.262 29.1636 164.876 29.9008 166.105 29.9008C167.149 29.9008 168.009 29.225 168.501 27.5662L167.702 27.2591C167.334 28.3649 166.965 28.5492 166.719 28.5492C166.474 28.5492 166.289 28.3649 166.289 27.9963C166.289 27.812 166.351 27.6277 166.351 27.4434L166.904 25.3545C167.026 24.863 167.088 24.433 167.088 24.0643C167.088 22.5284 166.166 21.7297 164.999 21.7297C163.955 21.7297 162.849 22.7127 162.296 23.6957L162.664 21.914H159.593L159.163 23.5114H160.576L159.715 26.8904C159.04 28.4264 157.75 28.4878 157.565 28.4264C157.319 28.3649 157.135 28.242 157.135 27.9349C157.135 27.7505 157.197 27.4434 157.258 27.1362L158.61 21.7912H155.231L154.801 23.3885H156.214L155.292 27.1362Z" fill="#323232"/>
<path d="M291.296 26.9755V23.4219C291.296 23.3292 291.234 23.2674 291.14 23.2674H289.959V21.8769H291.14C291.234 21.8769 291.296 21.815 291.296 21.7224V19.4975H292.975V21.7224C292.975 21.815 293.037 21.8769 293.131 21.8769H294.779V23.2674H293.131C293.037 23.2674 292.975 23.3292 292.975 23.4219V26.5738C292.975 28.0571 293.504 28.1807 294.188 28.1807C294.437 28.1807 294.81 28.1498 295.028 28.1188V29.5712C294.748 29.6021 294.281 29.6639 293.753 29.6639C293.1 29.633 291.296 29.633 291.296 26.9755ZM336.947 27.8408L338.315 27.13C338.626 27.8408 339.217 28.3043 339.901 28.3043C340.43 28.3043 341.021 28.0879 341.021 27.439C341.021 27.0064 340.741 26.7592 340.088 26.5429L339.155 26.2339C337.849 25.8322 337.196 25.0906 337.196 24.0399C337.196 22.7112 338.315 21.7224 339.839 21.7224C341.052 21.7224 342.078 22.3713 342.576 23.391L341.207 24.1326C340.896 23.4837 340.399 23.1129 339.808 23.1129C339.217 23.1129 338.813 23.4219 338.813 23.8854C338.813 24.2871 339.124 24.5962 339.746 24.7815L340.679 25.0906C342.047 25.5232 342.7 26.2648 342.7 27.2845C342.7 28.8914 341.301 29.7257 339.901 29.7257C338.502 29.6948 337.382 28.9841 336.947 27.8408ZM331.785 26.4502C331.754 26.4811 331.723 26.512 331.723 26.5429V29.5094H330.012V18.5396H331.723V24.5344C331.723 24.5962 331.754 24.6579 331.816 24.6579C331.878 24.6889 331.94 24.6579 331.972 24.627L334.739 21.846H336.823L333.589 25.0906C333.526 25.1524 333.526 25.2142 333.589 25.2759L337.103 29.5094H335.019L332.314 26.1721C332.282 26.1412 332.251 26.1103 332.22 26.1103C332.189 26.1103 332.158 26.1103 332.127 26.1412L331.785 26.4502ZM329.173 22.8966L328.084 23.9164C327.462 23.4529 326.84 23.2365 326.156 23.2365C324.726 23.2365 323.668 24.2871 323.668 25.7086C323.668 27.13 324.726 28.1807 326.156 28.1807C326.778 28.1807 327.431 27.9643 328.115 27.5008L329.079 28.5206C327.68 29.5403 326.934 29.7257 325.97 29.7257C324.819 29.7257 323.793 29.324 323.046 28.5823C322.331 27.8717 321.927 26.821 321.927 25.7086C321.927 23.391 323.637 21.6915 326.001 21.6915C326.778 21.6915 327.929 21.815 329.173 22.8966ZM321.15 19.5902C321.15 20.1465 320.683 20.61 320.123 20.61C319.564 20.61 319.097 20.1465 319.097 19.5902C319.097 19.034 319.564 18.5705 320.123 18.5705C320.683 18.5705 321.15 19.034 321.15 19.5902ZM320.994 29.5094H319.284V21.8769H320.994V29.5094ZM315.552 26.1721V29.5403H313.842V21.9078H315.521V22.8348C315.521 22.8966 315.552 22.9584 315.614 22.9893C315.676 23.0202 315.739 22.9893 315.77 22.9275C316.205 22.2168 317.014 21.7533 317.884 21.7533C318.009 21.7533 318.102 21.7533 318.164 21.7842V23.5146C318.071 23.4837 317.915 23.4837 317.76 23.4837C316.392 23.4529 315.552 24.5034 315.552 26.1721ZM306.378 25.7086C306.378 24.318 307.436 23.2365 308.804 23.2365C310.172 23.2365 311.229 24.318 311.229 25.7086C311.229 27.0991 310.172 28.1807 308.804 28.1807C307.436 28.1807 306.378 27.0991 306.378 25.7086ZM306.534 28.6133C306.565 28.6133 306.565 28.6133 306.596 28.6133C306.627 28.6133 306.689 28.6442 306.72 28.6751C307.311 29.3549 308.182 29.7257 309.177 29.7257C311.292 29.7257 312.909 27.9643 312.909 25.7086C312.909 24.5962 312.536 23.6074 311.82 22.8348C311.136 22.0932 310.172 21.6915 309.146 21.6915C308.182 21.6915 307.28 22.0932 306.689 22.8039C306.658 22.8348 306.596 22.8657 306.534 22.8348C306.472 22.8039 306.44 22.773 306.44 22.7112V18.5705H304.73V29.5403H306.44V28.7678C306.44 28.6751 306.472 28.6442 306.534 28.6133ZM299.443 28.1807C298.106 28.1807 297.018 27.0991 297.018 25.7086C297.018 24.318 298.075 23.2365 299.443 23.2365C300.812 23.2365 301.869 24.318 301.869 25.7086C301.869 27.0991 300.781 28.1807 299.443 28.1807ZM303.455 29.5094V21.8769H301.776V22.6494C301.776 22.7112 301.745 22.773 301.683 22.773C301.62 22.8039 301.558 22.773 301.527 22.7421C300.967 22.0623 300.097 21.6915 299.07 21.6915C296.956 21.6915 295.339 23.4529 295.339 25.7086C295.339 27.9643 296.987 29.7257 299.07 29.7257C300.034 29.7257 300.936 29.324 301.527 28.6133C301.558 28.5515 301.62 28.5515 301.683 28.5823C301.745 28.6133 301.776 28.6442 301.776 28.706V29.5403H303.455V29.5094ZM285.045 28.1807C283.708 28.1807 282.62 27.0991 282.62 25.7086C282.62 24.318 283.677 23.2365 285.045 23.2365C286.382 23.2365 287.471 24.318 287.471 25.7086C287.471 27.0991 286.382 28.1807 285.045 28.1807ZM289.057 29.5094V21.8769H287.378V22.6494C287.378 22.7112 287.347 22.773 287.284 22.773C287.222 22.8039 287.16 22.773 287.129 22.7421C286.569 22.0623 285.698 21.6915 284.672 21.6915C282.557 21.6915 280.94 23.4529 280.94 25.7086C280.94 27.9643 282.589 29.7257 284.672 29.7257C285.636 29.7257 286.538 29.324 287.129 28.6133C287.16 28.5515 287.222 28.5515 287.284 28.5823C287.347 28.6133 287.378 28.6442 287.378 28.706V29.5403H289.057V29.5094ZM275.965 28.1807C274.597 28.1807 273.539 27.0991 273.539 25.7086C273.539 24.318 274.597 23.2365 275.965 23.2365C277.302 23.2365 278.39 24.318 278.39 25.7086C278.39 27.0991 277.302 28.1807 275.965 28.1807ZM279.976 29.5094V18.5705H278.266V22.6803C278.266 22.7421 278.235 22.8039 278.173 22.8039C278.111 22.8348 278.048 22.8039 278.017 22.773C277.426 22.0932 276.556 21.7224 275.561 21.7224C273.446 21.7224 271.829 23.4837 271.829 25.7395C271.829 26.8519 272.202 27.8408 272.917 28.6133C273.601 29.3549 274.565 29.7566 275.592 29.7566C276.556 29.7566 277.458 29.3549 278.048 28.6442C278.079 28.6133 278.142 28.5823 278.204 28.6133C278.266 28.6442 278.297 28.6751 278.297 28.7369V29.5403H279.976V29.5094Z" fill="white"/>
<path d="M267.5 22.8811L261.114 26.5028L254.321 22.644L254 22.8164V25.6189L261.114 29.6718L267.5 26.0501V27.5376L261.114 31.1593L254.321 27.3004L254 27.4729V27.9472L261.114 32L268.25 27.9472V25.1447L267.928 24.9722L261.114 28.831L254.75 25.2093V23.7434L261.114 27.3436L268.25 23.2907V20.5313L267.885 20.3373L261.114 24.1745L255.093 20.7469L261.114 17.3408L266.085 20.1433L266.535 19.9061V19.5612L261.114 16.5L254 20.5313V20.9625L261.114 25.0153L267.5 21.3936V22.8811Z" fill="white"/>
<path fill-rule="evenodd" clip-rule="evenodd" d="M440.647 27.7817C438.318 31.7303 434.63 30.5845 433.522 29.6875C433.05 30.0073 432.224 30.7085 431.121 30.6275C428.774 30.4552 427.933 27.1003 427.933 27.1003C427.95 27.1138 427.234 27.3475 426.847 27.3433C426.842 28.3271 425.991 30.6773 423.696 30.6472C421.12 30.6137 420.597 26.7766 420.597 26.7766C420.597 26.7766 420.341 27.1325 419.366 27.4869C419.415 26.7311 419.379 30.5322 416.292 30.5881C413.852 30.6323 413.193 26.7174 413.193 26.7174C413.193 26.7174 412.77 27.1572 411.949 27.3097C412.001 26.5415 411.917 30.601 408.829 30.5881C406.743 30.5794 406.03 28.1765 406.086 27.843C406.156 27.4179 405.381 30.6478 403.354 30.5975C402.518 30.573 401.894 29.9674 401.503 29.1602C400.979 29.7595 400.219 30.5975 399.366 30.5975C397.835 30.5975 397.16 29.3168 397.274 25.659C397.284 25.2251 397.252 25.0545 396.821 24.9896C396.562 24.9464 396.297 24.8646 396.017 24.8215C395.927 25.1215 395.164 30.4999 392.542 30.602C391.662 30.6362 391.181 29.8742 390.786 29.3087C390.181 30.1097 389.382 30.6275 388.243 30.6275C386.314 30.6275 385 29.0682 385 27.1448C385 25.2212 386.314 23.6621 388.243 23.6621C388.584 23.6621 388.68 23.711 388.991 23.8019C388.351 17.9682 389.864 17.0565 391.187 17.0565C392.458 17.0565 394.629 20.006 391.574 27.4875C392.253 29.7191 393.715 29.5929 394.417 24.9991C394.56 24.0653 394.178 22.8053 394.773 22.6294C395.86 22.308 395.975 23.2723 396.485 23.433C397.024 23.6028 397.339 23.5862 397.856 23.6943C398.74 23.8669 399.085 24.3419 398.978 25.3998C398.848 26.7384 398.622 28.6866 399.312 28.9241C399.809 29.0965 400.718 28.0647 400.877 27.5001C401.037 26.9355 401.07 26.7422 401.084 26.3281C401.106 25.4431 401.133 24.7943 401.284 24.1249C401.348 23.8659 401.422 23.6944 401.715 23.6827C401.956 23.6765 402.397 23.6039 402.591 23.755C402.85 23.9494 402.818 24.1467 402.788 24.6658C402.487 32.0676 404.803 28.3726 405.493 25.414C405.247 22.0684 405.416 17.1178 407.513 17.0347C408.603 16.9916 409.085 17.865 409.138 18.517C409.288 20.3584 408.448 23.4086 407.343 25.4599C406.712 29.6454 410.104 30.4729 410.646 27.1321C409.759 26.7101 408.8 25.0022 409.58 24.1699C410.018 23.7027 411.841 24.3738 411.871 25.8374C412.765 25.5982 412.885 25.0933 412.897 25.177C412.651 21.8315 412.879 17.1178 414.976 17.0348C416.066 16.9916 416.548 17.8651 416.601 18.517C416.751 20.3584 415.911 23.4086 414.806 25.4599C414.175 29.6454 417.567 30.473 418.109 27.1322C417.452 27.0054 416.065 25.1888 416.865 24.1699C417.293 23.6255 419.109 24.7577 419.313 25.8859C420.172 25.6428 420.288 25.1539 420.301 25.2362C420.055 21.8908 420.283 17.1771 422.379 17.0941C423.47 17.0509 423.952 17.9244 424.005 18.5763C424.154 20.4177 423.314 23.468 422.21 25.5193C421.578 29.7048 424.97 30.5322 425.513 27.1913C424.61 27.041 423.327 25.1229 424.359 24.1416C424.772 23.7496 426.349 24.7673 426.718 25.9284C427.231 25.9087 427.55 25.7318 427.618 25.714C426.8 21.7865 427.409 17.0742 429.665 17.0348C430.884 17.0136 432.075 17.6939 431.552 21.4303C431.053 24.9953 429.258 26.4914 429.262 26.5143C429.367 26.9413 430.288 30.5156 432.607 28.6297C432.487 28.3579 432.367 28.0801 432.299 27.7437C431.915 25.7839 432.67 23.5702 434.722 23.2124C435.898 23.0075 437.006 23.5799 437.181 24.8705C437.469 26.9823 435.562 28.5116 434.837 28.8434C434.512 28.6589 437.781 30.7553 439.721 26.554C439.834 26.3141 439.969 26.3344 440.145 26.4581C440.269 26.5454 440.976 27.215 440.647 27.7817ZM389.646 26.6259C389.547 26.3308 389.345 25.6805 389.273 25.3988C388.879 25.0557 388.597 25 388.091 25C386.965 25 386.303 26.0404 386.303 27.1624C386.303 28.2842 387.025 29.3248 388.15 29.3248C389.125 29.3248 389.867 28.6617 390.094 27.7231C389.935 27.3571 389.778 27.0208 389.646 26.6259ZM391.16 18.6007C390.369 18.6007 390.101 20.487 390.153 22.0962C390.199 23.5189 390.597 24.7714 390.803 25.3326C390.855 25.403 390.845 25.3572 390.892 25.4318C392.265 22.4236 391.696 18.6007 391.16 18.6007ZM407.626 18.66C406.604 18.5428 406.61 22.8001 406.737 23.755C407.268 22.9059 408.19 18.8886 407.626 18.66ZM415.088 18.66C414.066 18.5428 414.073 22.8001 414.2 23.755C414.731 22.9059 415.653 18.8886 415.088 18.66ZM422.492 18.7192C421.47 18.602 421.477 22.8593 421.604 23.8143C422.134 22.9652 423.056 18.9478 422.492 18.7192ZM429.777 18.4108C428.185 18.7305 428.556 24.0395 428.798 24.9706C430.673 22.3945 430.712 18.314 429.777 18.4108ZM435.745 25.0452C435.664 24.7067 435.259 24.5257 434.98 24.5703C434.18 24.6795 433.405 25.6752 433.705 27.1912C433.772 27.5288 433.939 27.8396 433.936 27.8293C435.725 26.6289 435.878 25.6829 435.745 25.0452ZM402.028 22.5109C401.8 22.5109 401.576 22.4432 401.386 22.3163C401.196 22.1894 401.048 22.009 400.961 21.7979C400.873 21.5868 400.85 21.3545 400.895 21.1303C400.94 20.9062 401.05 20.7003 401.211 20.5388C401.373 20.3772 401.579 20.2671 401.803 20.2225C402.027 20.1779 402.259 20.2008 402.47 20.2883C402.681 20.3757 402.862 20.5238 402.989 20.7138C403.116 20.9038 403.183 21.1272 403.183 21.3557C403.183 21.5074 403.154 21.6576 403.096 21.7977C403.038 21.9379 402.952 22.0652 402.845 22.1725C402.738 22.2798 402.611 22.3649 402.47 22.4229C402.33 22.481 402.18 22.5109 402.028 22.5109Z" fill="white"/>
<g clip-path="url(#clip0_2001_1318)">
<path d="M490.632 31.5331C489.797 31.6798 488.947 31.7237 488.068 31.8408L485.388 23.9893V32.1778C484.553 32.2656 483.791 32.3828 483 32.5V17.5H485.227L488.273 26.0109V17.5H490.632V31.5331ZM495.246 22.9932C496.154 22.9932 497.546 22.9492 498.381 22.9492V25.2929C497.341 25.2929 496.125 25.2929 495.246 25.3369V28.8233C496.623 28.7354 498 28.6181 499.392 28.5741V30.8299L492.902 31.3427V17.5H499.392V19.8438H495.246V22.9932ZM508.107 19.8438H505.676V30.625C504.885 30.625 504.094 30.625 503.332 30.6543V19.8438H500.901V17.5H508.108L508.107 19.8438ZM511.916 22.8321H515.124V25.1758H511.916V30.4932H509.616V17.5H516.164V19.8438H511.916V22.8321ZM519.973 28.4424C521.306 28.4716 522.653 28.5743 523.957 28.6474V30.9619C521.862 30.83 519.768 30.6983 517.629 30.6543V17.5H519.973V28.4424ZM525.935 31.123C526.682 31.1671 527.473 31.211 528.234 31.2988V17.5H525.935V31.123ZM538.503 17.5L535.529 24.6338L538.503 32.5C537.624 32.3828 536.745 32.2217 535.866 32.0752L534.182 27.7393L532.468 31.7237C531.618 31.5771 530.798 31.5331 529.948 31.416L532.966 24.5458L530.241 17.5H532.761L534.299 21.4404L535.939 17.5H538.503V17.5Z" fill="white"/>
</g>
<path d="M602.968 29.8875V22.6099H603.097L608.395 29.8875H610.062V19.2003H608.21V26.4595H608.08L602.783 19.2003H601.116V29.8875H602.968ZM615.304 30.0524C617.748 30.0524 619.249 28.476 619.249 25.8362C619.249 23.2149 617.748 21.6201 615.304 21.6201C612.877 21.6201 611.358 23.2149 611.358 25.8362C611.377 28.476 612.859 30.0524 615.304 30.0524ZM615.304 28.5126C614.007 28.5126 613.266 27.5411 613.266 25.8362C613.266 24.1498 614.007 23.1599 615.304 23.1599C616.6 23.1599 617.341 24.1498 617.341 25.8362C617.341 27.5411 616.6 28.5126 615.304 28.5126ZM620.934 19.8053V21.84H619.638V23.3065H620.934V27.7244C620.934 29.3009 621.675 29.9241 623.564 29.9241C623.916 29.9241 624.268 29.8875 624.546 29.8325V28.4026C624.324 28.421 624.176 28.4393 623.916 28.4393C623.138 28.4393 622.787 28.091 622.787 27.2844V23.3065H624.546V21.84H622.787V19.8053H620.934ZM625.657 29.8875H627.51V21.785H625.657V29.8875ZM626.584 20.4468C627.195 20.4468 627.695 19.9519 627.695 19.347C627.695 18.7237 627.195 18.2288 626.584 18.2288C625.972 18.2288 625.472 18.7237 625.472 19.347C625.472 19.9519 625.972 20.4468 626.584 20.4468ZM632.585 30.0524C635.03 30.0524 636.53 28.476 636.53 25.8362C636.53 23.2149 635.03 21.6201 632.585 21.6201C630.158 21.6201 628.64 23.2149 628.64 25.8362C628.64 28.476 630.121 30.0524 632.585 30.0524ZM632.585 28.5126C631.288 28.5126 630.547 27.5411 630.547 25.8362C630.547 24.1498 631.288 23.1599 632.585 23.1599C633.863 23.1599 634.622 24.1498 634.622 25.8362C634.604 27.5411 633.863 28.5126 632.585 28.5126ZM637.623 29.8875H639.475V25.1763C639.475 23.9848 640.179 23.2332 641.272 23.2332C642.401 23.2332 642.92 23.8565 642.92 25.0847V29.8875H644.772V24.6447C644.772 22.7016 643.772 21.6201 641.957 21.6201C640.734 21.6201 639.919 22.17 639.531 23.0866H639.401V21.785H637.604C637.623 21.785 637.623 29.8875 637.623 29.8875Z" fill="white"/>
<path fill-rule="evenodd" clip-rule="evenodd" d="M583.356 18.5163C583.895 18.9512 584.09 18.9169 585.099 18.8482L594.608 18.276C594.815 18.276 594.642 18.0699 594.574 18.0471L592.991 16.914C592.693 16.6851 592.28 16.4105 591.511 16.4791L582.312 17.1544C581.98 17.1887 581.911 17.3604 582.048 17.4863L583.356 18.5163ZM583.93 20.7251V30.7049C583.93 31.2428 584.193 31.4374 584.801 31.4031L595.25 30.7965C595.858 30.7621 595.927 30.3959 595.927 29.961V20.0499C595.927 19.615 595.755 19.3746 595.388 19.409L584.469 20.0499C584.067 20.0842 583.93 20.2902 583.93 20.7251ZM594.241 21.263C594.31 21.5606 594.241 21.8696 593.943 21.9039L593.438 22.0069V29.3773C593.002 29.6062 592.601 29.7436 592.257 29.7436C591.718 29.7436 591.58 29.5719 591.179 29.0683L587.887 23.9068V28.8967L588.93 29.1256C588.93 29.1256 588.93 29.7321 588.093 29.7321L585.776 29.8695C585.707 29.7321 585.776 29.4002 586.006 29.3316L586.614 29.1599V22.5677L585.776 22.4991C585.707 22.2015 585.879 21.7666 586.35 21.7323L588.839 21.5606L592.268 26.7794V22.1672L591.396 22.0642C591.328 21.6979 591.603 21.4233 591.936 21.3889L594.241 21.263ZM581.544 16.2388L591.121 15.5407C592.291 15.4377 592.601 15.5063 593.335 16.0442L596.386 18.1844C596.891 18.5506 597.063 18.6536 597.063 19.0542V30.8079C597.063 31.5404 596.799 31.9753 595.858 32.044L584.744 32.7192C584.033 32.7535 583.7 32.6505 583.333 32.1813L581.073 29.2629C580.672 28.725 580.5 28.3244 580.5 27.8552V17.4062C580.5 16.7996 580.775 16.3075 581.544 16.2388Z" fill="white"/>
<defs>
<clipPath id="clip0_2001_1318">
<rect width="111" height="48" fill="white" transform="matrix(0.5 0 0 0.5 483 12.5)"/>
</clipPath>
</defs>
</svg>
