<svg width="12" height="12" viewBox="0 0 12 12" fill="none" xmlns="http://www.w3.org/2000/svg">
<path d="M4.00004 11H8.00004C10.01 11 10.37 10.195 10.475 9.215L10.85 5.215C10.985 3.995 10.635 3 8.50004 3H3.50004C1.36504 3 1.01504 3.995 1.15004 5.215L1.52504 9.215C1.63004 10.195 1.99004 11 4.00004 11Z" stroke="white" stroke-width="1.5" stroke-miterlimit="10" stroke-linecap="round" stroke-linejoin="round"/>
<path d="M4 3V2.6C4 1.715 4 1 5.6 1H6.4C8 1 8 1.715 8 2.6V3" stroke="white" stroke-width="1.5" stroke-miterlimit="10" stroke-linecap="round" stroke-linejoin="round"/>
<path d="M7 6.5V7C7 7.005 7 7.005 7 7.01C7 7.555 6.995 8 6 8C5.01 8 5 7.56 5 7.015V6.5C5 6 5 6 5.5 6H6.5C7 6 7 6 7 6.5Z" stroke="white" stroke-width="1.5" stroke-miterlimit="10" stroke-linecap="round" stroke-linejoin="round"/>
<path d="M10.825 5.5C9.67 6.34 8.35 6.84 7 7.01" stroke="white" stroke-width="1.5" stroke-miterlimit="10" stroke-linecap="round" stroke-linejoin="round"/>
<path d="M1.31006 5.63501C2.43506 6.40501 3.70506 6.87001 5.00006 7.01501" stroke="white" stroke-width="1.5" stroke-miterlimit="10" stroke-linecap="round" stroke-linejoin="round"/>
</svg>
