<svg width="12" height="12" viewBox="0 0 12 12" fill="none" xmlns="http://www.w3.org/2000/svg">
<path d="M10.545 3.49001C10.12 3.02001 9.41002 2.78501 8.38002 2.78501H8.26002V2.76501C8.26002 1.92501 8.26002 0.88501 6.38002 0.88501H5.62002C3.74002 0.88501 3.74002 1.93001 3.74002 2.76501V2.79001H3.62002C2.58502 2.79001 1.88002 3.02501 1.45502 3.49501C0.960019 4.04501 0.975019 4.78501 1.02502 5.29001L1.03002 5.32501L1.08002 5.85001C1.08502 5.85501 1.09502 5.86501 1.10502 5.87001C1.27002 5.98001 1.44002 6.09001 1.62002 6.19001C1.69002 6.23501 1.76502 6.27501 1.84002 6.31501C2.69502 6.78501 3.63502 7.10001 4.59002 7.25501C4.63502 7.72501 4.84002 8.27501 5.93502 8.27501C7.03002 8.27501 7.24502 7.73001 7.28002 7.24501C8.30002 7.08001 9.28502 6.72501 10.175 6.20501C10.205 6.19001 10.225 6.17501 10.25 6.16001C10.48 6.03001 10.695 5.89001 10.905 5.73501C10.915 5.73001 10.925 5.72001 10.93 5.71001L10.95 5.53001L10.975 5.29501C10.98 5.26501 10.98 5.24001 10.985 5.20501C11.025 4.70001 11.015 4.01001 10.545 3.49001ZM6.54502 6.91501C6.54502 7.44501 6.54502 7.52501 5.93002 7.52501C5.31502 7.52501 5.31502 7.43001 5.31502 6.92001V6.29001H6.54502V6.91501ZM4.45502 2.78501V2.76501C4.45502 1.91501 4.45502 1.60001 5.62002 1.60001H6.38002C7.54502 1.60001 7.54502 1.92001 7.54502 2.76501V2.79001H4.45502V2.78501Z" fill="#A068AE"/>
<path opacity="0.4" d="M10.25 6.15001C10.225 6.16501 10.2 6.18001 10.175 6.19501C9.28496 6.71501 8.29996 7.06501 7.27996 7.23501C7.23996 7.71501 7.02996 8.26501 5.93496 8.26501C4.83996 8.26501 4.62996 7.72001 4.58996 7.24501C3.63496 7.09501 2.69496 6.78001 1.83996 6.30501C1.76496 6.26501 1.68996 6.22501 1.61996 6.18001C1.43996 6.08001 1.26996 5.97001 1.10496 5.86001C1.09496 5.85501 1.08496 5.84501 1.07996 5.84001L1.38496 9.09501C1.48996 10.09 1.89996 11.115 4.09996 11.115H7.90996C10.11 11.115 10.52 10.09 10.625 9.09001L10.94 5.70001C10.935 5.71001 10.925 5.72001 10.915 5.72501C10.7 5.88001 10.48 6.02501 10.25 6.15001Z" fill="#A068AE"/>
</svg>
