<svg width="21" height="21" viewBox="0 0 21 21" fill="none" xmlns="http://www.w3.org/2000/svg">
<path d="M19.2237 16.0407C19.2237 16.3557 19.1537 16.6795 19.005 16.9945C18.8562 17.3095 18.6638 17.607 18.41 17.887C17.9813 18.3595 17.5087 18.7007 16.975 18.9195C16.45 19.1382 15.8813 19.252 15.2688 19.252C14.3763 19.252 13.4225 19.042 12.4162 18.6132C11.41 18.1845 10.4037 17.607 9.40625 16.8807C8.4 16.1457 7.44625 15.332 6.53625 14.4307C5.635 13.5207 4.82125 12.567 4.095 11.5695C3.3775 10.572 2.8 9.57445 2.38 8.5857C1.96 7.5882 1.75 6.63445 1.75 5.72445C1.75 5.12945 1.855 4.5607 2.065 4.0357C2.275 3.50195 2.6075 3.01195 3.07125 2.57445C3.63125 2.0232 4.24375 1.75195 4.89125 1.75195C5.13625 1.75195 5.38125 1.80445 5.6 1.90945C5.8275 2.01445 6.02875 2.17195 6.18625 2.39945L8.21625 5.2607C8.37375 5.47945 8.4875 5.6807 8.56625 5.8732C8.645 6.05695 8.68875 6.2407 8.68875 6.40695C8.68875 6.61695 8.6275 6.82695 8.505 7.0282C8.39125 7.22945 8.225 7.43945 8.015 7.64945L7.35 8.3407C7.25375 8.43695 7.21 8.5507 7.21 8.6907C7.21 8.7607 7.21875 8.82195 7.23625 8.89195C7.2625 8.96195 7.28875 9.01445 7.30625 9.06695C7.46375 9.3557 7.735 9.73195 8.12 10.187C8.51375 10.642 8.93375 11.1057 9.38875 11.5695C9.86125 12.0332 10.3162 12.462 10.78 12.8557C11.235 13.2407 11.6112 13.5032 11.9087 13.6607C11.9525 13.6782 12.005 13.7045 12.0662 13.7307C12.1362 13.757 12.2062 13.7657 12.285 13.7657C12.4337 13.7657 12.5475 13.7132 12.6437 13.617L13.3088 12.9607C13.5275 12.742 13.7375 12.5757 13.9388 12.4707C14.14 12.3482 14.3412 12.287 14.56 12.287C14.7262 12.287 14.9013 12.322 15.0938 12.4007C15.2862 12.4795 15.4875 12.5932 15.7063 12.742L18.6025 14.7982C18.83 14.9557 18.9875 15.1395 19.0837 15.3582C19.1712 15.577 19.2237 15.7957 19.2237 16.0407Z" stroke="white" stroke-width="1.5" stroke-miterlimit="10"/>
<path d="M14.175 6.82695H18.375M14.175 6.82695V2.62695V6.82695Z" stroke="white" stroke-width="1.5" stroke-linecap="round" stroke-linejoin="round"/>
</svg>
