<svg width="33" height="40" viewBox="0 0 33 40" fill="none" xmlns="http://www.w3.org/2000/svg">
<path opacity="0.4" d="M30.6774 8.71619C28.6231 4.51569 24.6527 1.41531 20.0503 0.395187C15.2305 -0.684944 10.2922 0.475196 6.51941 3.55557C2.72682 6.61594 0.57373 11.1965 0.57373 16.0971C0.57373 21.2777 3.63546 26.6984 8.25768 29.8387V31.4989C8.23793 32.059 8.21817 32.9191 8.88978 33.6192C9.58114 34.3393 10.6083 34.4193 11.4182 34.4193H21.5515C22.6182 34.4193 23.428 34.1193 23.9811 33.5592C24.7318 32.7791 24.712 31.779 24.6922 31.2389V29.8387C30.8157 25.6582 34.6676 16.8372 30.6774 8.71619Z" fill="#3879F0"/>
<path d="M22.8749 40C22.7564 40 22.6181 39.98 22.4996 39.94C18.5292 38.7998 14.3613 38.7998 10.391 39.94C9.6601 40.14 8.88973 39.72 8.6922 38.9799C8.47492 38.2398 8.90948 37.4597 9.64035 37.2597C14.1045 35.9795 18.8058 35.9795 23.27 37.2597C24.0008 37.4797 24.4354 38.2398 24.2181 38.9799C24.0206 39.5999 23.4675 40 22.8749 40Z" fill="#3879F0"/>
<path d="M16.5737 0C7.74173 0 0.57373 7.25848 0.57373 16.202C0.57373 25.1454 7.74173 32.4039 16.5737 32.4039C25.4057 32.4039 32.5737 25.1454 32.5737 16.202C32.5737 7.25848 25.4057 0 16.5737 0ZM24.5737 24.708H19.6137C19.1337 24.708 18.7017 24.4326 18.5097 23.9789C18.3177 23.5252 18.3977 23.023 18.7177 22.6665L21.3097 19.7664C22.3817 18.5512 22.9897 17.0121 22.9897 15.4243C22.9897 13.8041 22.3337 12.2811 21.1337 11.1307C19.9337 9.98041 18.2697 9.31613 16.5737 9.31613C14.8777 9.31613 13.2137 9.98041 12.0137 11.1307C10.8137 12.2811 10.1577 13.8041 10.1577 15.4243C10.1577 17.0121 10.7497 18.5512 11.8377 19.7664L14.4137 22.6827C14.7337 23.0392 14.8137 23.5576 14.6217 23.9951C14.4297 24.4326 13.9977 24.7242 13.5177 24.7242H8.57373C7.91773 24.7242 7.37373 24.1733 7.37373 23.509C7.37373 22.8448 7.91773 22.2777 8.57373 22.2777H10.8297L10.0457 21.4028C8.57373 19.7502 7.75773 17.6277 7.75773 15.4243C7.75773 13.1722 8.70173 10.9525 10.3657 9.36473C12.0297 7.76074 14.2217 6.88583 16.5737 6.88583C18.9257 6.88583 21.1177 7.76074 22.7817 9.36473C24.4297 10.9525 25.3897 13.1722 25.3897 15.4243C25.3897 17.6115 24.5737 19.734 23.1017 21.4028L22.3177 22.2777H24.5737C25.2297 22.2777 25.7737 22.8286 25.7737 23.4928C25.7737 24.1571 25.2297 24.708 24.5737 24.708Z" fill="#3879F0"/>
</svg>
