<svg width="21" height="21" viewBox="0 0 21 21" fill="none" xmlns="http://www.w3.org/2000/svg">
<path d="M19.25 7.87703V13.127C19.25 15.3145 18.8125 16.8458 17.8325 17.8345L12.25 12.252L19.0138 5.48828C19.1713 6.17953 19.25 6.96703 19.25 7.87703Z" stroke="white" stroke-width="1.5" stroke-linecap="round" stroke-linejoin="round"/>
<path d="M19.0138 5.48821L5.48624 19.0157C2.85249 18.4119 1.75 16.592 1.75 13.127V7.87695C1.75 3.50195 3.5 1.75195 7.875 1.75195H13.125C16.59 1.75195 18.41 2.85446 19.0138 5.48821Z" stroke="white" stroke-width="1.5" stroke-linecap="round" stroke-linejoin="round"/>
<path d="M17.8325 17.8345C16.8438 18.8145 15.3125 19.252 13.125 19.252H7.87503C6.96503 19.252 6.17752 19.1732 5.48627 19.0157L12.25 12.252L17.8325 17.8345Z" stroke="white" stroke-width="1.5" stroke-linecap="round" stroke-linejoin="round"/>
<path d="M5.45999 6.98434C6.05499 4.42059 9.90499 4.42059 10.5 6.98434C10.8412 8.48934 9.89623 9.76684 9.06498 10.5543C8.46123 11.1318 7.5075 11.1318 6.895 10.5543C6.06375 9.76684 5.10999 8.48934 5.45999 6.98434Z" stroke="white" stroke-width="1.5"/>
<path d="M7.95778 7.6145H7.96564" stroke="white" stroke-width="2" stroke-linecap="round" stroke-linejoin="round"/>
</svg>
