<svg width="12" height="12" viewBox="0 0 12 12" fill="none" xmlns="http://www.w3.org/2000/svg">
<path opacity="0.4" d="M8.76502 3.885C8.73002 3.88 8.69502 3.88 8.66002 3.885C7.88502 3.86 7.27002 3.225 7.27002 2.445C7.27002 1.65 7.91502 1 8.71502 1C9.51002 1 10.16 1.645 10.16 2.445C10.155 3.225 9.54002 3.86 8.76502 3.885Z" fill="#FF9F51"/>
<path opacity="0.4" d="M10.3951 7.35001C9.83505 7.72501 9.05005 7.86501 8.32505 7.77001C8.51505 7.36001 8.61505 6.90502 8.62005 6.42502C8.62005 5.92502 8.51005 5.45002 8.30005 5.03502C9.04005 4.93502 9.82505 5.07501 10.39 5.45001C11.18 5.97001 11.1801 6.82501 10.3951 7.35001Z" fill="#FF9F51"/>
<path opacity="0.4" d="M3.21995 3.885C3.25495 3.88 3.28995 3.88 3.32495 3.885C4.09995 3.86 4.71495 3.225 4.71495 2.445C4.71495 1.65 4.06995 1 3.26995 1C2.47495 1 1.82495 1.645 1.82495 2.445C1.82995 3.225 2.44495 3.86 3.21995 3.885Z" fill="#FF9F51"/>
<path opacity="0.4" d="M3.27506 6.42499C3.27506 6.90999 3.38006 7.36999 3.57006 7.78499C2.86506 7.85999 2.13006 7.70999 1.59006 7.35499C0.800059 6.82999 0.800059 5.97499 1.59006 5.44999C2.12506 5.08999 2.88006 4.94499 3.59006 5.02499C3.38506 5.44499 3.27506 5.91999 3.27506 6.42499Z" fill="#FF9F51"/>
<path d="M6.06002 7.935C6.02002 7.93 5.97503 7.93 5.93003 7.935C5.01003 7.905 4.27502 7.15 4.27502 6.22C4.27502 5.27 5.04003 4.5 5.99503 4.5C6.94503 4.5 7.71502 5.27 7.71502 6.22C7.71502 7.15 6.98502 7.905 6.06002 7.935Z" fill="#FF9F51"/>
<path d="M4.43502 8.97001C3.68002 9.47501 3.68002 10.305 4.43502 10.805C5.29502 11.38 6.70503 11.38 7.56503 10.805C8.32003 10.3 8.32003 9.47001 7.56503 8.97001C6.71003 8.39501 5.30002 8.39501 4.43502 8.97001Z" fill="#FF9F51"/>
</svg>
