<svg width="12" height="12" viewBox="0 0 12 12" fill="none" xmlns="http://www.w3.org/2000/svg">
<path d="M9.1976 3.51106C8.80024 3.51184 8.47715 3.1901 8.47638 2.79274C8.4756 2.39538 8.79733 2.07228 9.19488 2.07151C9.59242 2.07073 9.91552 2.39266 9.9163 2.79002C9.91688 3.18738 9.59514 3.51028 9.1976 3.51106Z" fill="#FAF9F6"/>
<path fill-rule="evenodd" clip-rule="evenodd" d="M6.00574 9.0805C4.30454 9.08381 2.92255 7.70744 2.91925 6.00583C2.91594 4.30461 4.29268 2.92241 5.99388 2.9191C7.69547 2.9158 9.07765 4.29295 9.08096 5.99397C9.08426 7.69558 7.70713 9.0772 6.00574 9.0805ZM5.99602 4.00018C4.89183 4.00212 3.99797 4.89929 3.99992 6.00369C4.00205 7.10829 4.89941 8.00196 6.0036 7.99982C7.10819 7.99768 8.00204 7.10071 7.99989 5.99611C7.99776 4.89151 7.10041 3.99804 5.99602 4.00018Z" fill="#FAF9F6"/>
<path fill-rule="evenodd" clip-rule="evenodd" d="M2.0596 0.32324C2.44063 0.173938 2.87667 0.0716811 3.51508 0.0415491C4.15505 0.0108363 4.35936 0.00383551 5.98844 0.00072631C7.6179 -0.00238289 7.82221 0.00383431 8.46218 0.0322167C9.10079 0.0598215 9.53703 0.160524 9.91883 0.308272C10.3138 0.460487 10.649 0.665391 10.983 0.998014C11.317 1.33102 11.5226 1.66501 11.6768 2.05945C11.8259 2.44087 11.9281 2.87653 11.9585 3.51534C11.9888 4.15511 11.9962 4.35924 11.9993 5.98853C12.0024 7.61763 11.9958 7.82214 11.9678 8.4625C11.94 9.10072 11.8395 9.53716 11.6918 9.91877C11.5391 10.3138 11.3346 10.6489 11.002 10.9829C10.6694 11.3171 10.335 11.5226 9.9406 11.677C9.55918 11.8259 9.12353 11.9281 8.48512 11.9586C7.84516 11.989 7.64084 11.9962 6.01118 11.9993C4.3823 12.0024 4.17799 11.9962 3.53802 11.968C2.89941 11.94 2.46299 11.8395 2.08137 11.6919C1.68636 11.5391 1.35121 11.3348 1.01723 11.002C0.683055 10.6692 0.477193 10.335 0.323229 9.94055C0.173929 9.55932 0.0720535 9.12347 0.0415363 8.48524C0.0110179 7.84507 0.00382753 7.64057 0.000719532 6.01147C-0.00240047 4.38218 0.00401833 4.17806 0.0320083 3.53808C0.0601999 2.89927 0.160318 2.46303 0.308065 2.08103C0.460664 1.6862 0.665173 1.35124 0.998184 1.01706C1.3308 0.683082 1.66517 0.477009 2.0596 0.32324ZM2.47077 10.6839C2.68247 10.7654 3.00011 10.8626 3.58507 10.8881C4.21803 10.9155 4.40757 10.9215 6.00924 10.9184C7.61149 10.9155 7.80103 10.9087 8.43379 10.8789C9.01817 10.8511 9.33581 10.7528 9.54693 10.6703C9.82707 10.5609 10.0265 10.4301 10.2361 10.2203C10.4456 10.0097 10.5753 9.80971 10.6838 9.52957C10.7654 9.31768 10.8624 8.99982 10.8879 8.41487C10.9157 7.78228 10.9215 7.59255 10.9184 5.99047C10.9155 4.38878 10.9087 4.19905 10.8786 3.56627C10.851 2.9817 10.7528 2.66404 10.6702 2.45312C10.5607 2.17259 10.4303 1.97353 10.22 1.76376C10.0096 1.554 9.80957 1.42472 9.52905 1.31625C9.31773 1.23441 8.99969 1.13759 8.41514 1.11213C7.78216 1.08433 7.59243 1.07869 5.99038 1.0818C4.38871 1.08491 4.19918 1.09132 3.5664 1.12126C2.98165 1.14906 2.66438 1.24723 2.45287 1.32986C2.17294 1.4393 1.97348 1.56936 1.76373 1.7799C1.55435 1.99044 1.42469 2.19009 1.31622 2.47081C1.23497 2.68232 1.13717 3.00036 1.1121 3.58493C1.08449 4.21791 1.07866 4.40765 1.08177 6.00933C1.08469 7.6114 1.09149 7.80114 1.12124 8.43353C1.14865 9.01849 1.24759 9.33575 1.32983 9.54746C1.43927 9.82721 1.56972 10.0267 1.77987 10.2364C1.9904 10.4454 2.19044 10.5755 2.47077 10.6839Z" fill="#FAF9F6"/>
</svg>
