<svg width="12" height="12" viewBox="0 0 12 12" fill="none" xmlns="http://www.w3.org/2000/svg">
<path d="M5.02501 1.26499L2.01501 3.22999C1.05001 3.85999 1.05001 5.26999 2.01501 5.89999L5.02501 7.86499C5.56501 8.21999 6.45501 8.21999 6.99501 7.86499L9.99001 5.89999C10.95 5.26999 10.95 3.86499 9.99001 3.23499L6.99501 1.26999C6.45501 0.909987 5.56501 0.909987 5.02501 1.26499Z" stroke="white" stroke-width="1.5" stroke-linecap="round" stroke-linejoin="round"/>
<path d="M2.81506 6.54001L2.81006 8.88501C2.81006 9.52001 3.30006 10.2 3.90006 10.4L5.49506 10.93C5.77006 11.02 6.22506 11.02 6.50506 10.93L8.10006 10.4C8.70006 10.2 9.19006 9.52001 9.19006 8.88501V6.56501" stroke="white" stroke-width="1.5" stroke-linecap="round" stroke-linejoin="round"/>
<path d="M10.7 7.5V4.5" stroke="white" stroke-width="1.5" stroke-linecap="round" stroke-linejoin="round"/>
</svg>
