<svg width="12" height="12" viewBox="0 0 12 12" fill="none" xmlns="http://www.w3.org/2000/svg">
<path opacity="0.4" d="M9.19 6.42001V8.88501C9.19 9.52001 8.695 10.2 8.1 10.4L6.505 10.93C6.225 11.025 5.77 11.025 5.495 10.93L3.9 10.4C3.3 10.2 2.81 9.52001 2.81 8.88501L2.815 6.42001L5.025 7.86001C5.565 8.21501 6.455 8.21501 6.995 7.86001L9.19 6.42001Z" fill="#F37F73"/>
<path d="M9.99001 3.23L6.99501 1.265C6.45501 0.909999 5.56501 0.909999 5.02501 1.265L2.01501 3.23C1.05001 3.855 1.05001 5.27 2.01501 5.9L2.81501 6.42L5.02501 7.86C5.56501 8.215 6.45501 8.215 6.99501 7.86L9.19001 6.42L9.87501 5.97V7.5C9.87501 7.705 10.045 7.875 10.25 7.875C10.455 7.875 10.625 7.705 10.625 7.5V5.04C10.825 4.395 10.62 3.645 9.99001 3.23Z" fill="#F37F73"/>
</svg>
