<svg width="12" height="12" viewBox="0 0 12 12" fill="none" xmlns="http://www.w3.org/2000/svg">
<path d="M3.90479 1.25H8.09521C8.95539 1.25004 9.61195 1.5055 10.0532 1.94678C10.4945 2.38805 10.75 3.04461 10.75 3.90479V8.09521C10.75 8.75977 10.5976 9.30188 10.3267 9.71533C10.057 10.1267 9.66038 10.4256 9.14355 10.5918L9.1377 10.5938C8.84 10.6975 8.489 10.75 8.09521 10.75H3.90479C3.511 10.75 3.16 10.6975 2.8623 10.5938L2.85645 10.5918C2.33962 10.4256 1.94296 10.1267 1.67334 9.71533C1.40241 9.30188 1.25003 8.75977 1.25 8.09521V3.90479C1.25004 3.04461 1.5055 2.38805 1.94678 1.94678C2.38805 1.5055 3.04461 1.25004 3.90479 1.25ZM3.90479 1.5C3.15785 1.50004 2.54616 1.69798 2.12207 2.12207C1.69798 2.54616 1.50004 3.15785 1.5 3.90479V8.1001C1.50001 8.66646 1.61254 9.15401 1.85498 9.54248C2.09999 9.93498 2.46557 10.2067 2.93311 10.3579L2.9707 10.3701H3.16797L3.23779 10.2339C3.6783 9.37085 4.72803 8.73486 6 8.73486C7.27205 8.73486 8.32669 9.37584 8.76221 10.2334L8.85938 10.4248L9.06348 10.3574C9.53442 10.2014 9.90133 9.92896 10.1465 9.53613C10.3891 9.14743 10.5 8.66112 10.5 8.09521V3.90479C10.5 3.15785 10.302 2.54616 9.87793 2.12207C9.45384 1.69798 8.84215 1.50004 8.09521 1.5H3.90479Z" fill="#3879F0" stroke="#3879F0"/>
<path d="M6 4.25C6.85191 4.25002 7.54004 4.93812 7.54004 5.79004C7.54002 6.64285 6.85099 7.33494 6 7.33496C5.14899 7.33496 4.45998 6.64286 4.45996 5.79004C4.45996 4.93811 5.14807 4.25 6 4.25Z" fill="#3879F0" stroke="#3879F0"/>
</svg>
