<svg width="12" height="12" viewBox="0 0 12 12" fill="none" xmlns="http://www.w3.org/2000/svg">
<path opacity="0.4" d="M3.90479 1.25H8.09521C8.95539 1.25004 9.61195 1.5055 10.0532 1.94678C10.4945 2.38805 10.75 3.04461 10.75 3.90479V8.09521C10.75 8.75977 10.5976 9.30188 10.3267 9.71533C10.057 10.1267 9.66039 10.4256 9.14355 10.5918L9.1377 10.5938C8.83999 10.6975 8.48899 10.75 8.09521 10.75H3.90479C3.51101 10.75 3.16001 10.6975 2.8623 10.5938L2.85645 10.5918C2.33961 10.4256 1.94296 10.1267 1.67334 9.71533C1.40241 9.30188 1.25003 8.75977 1.25 8.09521V3.90479C1.25004 3.04461 1.5055 2.38805 1.94678 1.94678C2.38805 1.5055 3.04461 1.25004 3.90479 1.25Z" fill="#3879F0" stroke="#3879F0"/>
<path d="M6.00024 8.73499C7.48456 8.73507 8.66709 9.58977 8.93237 10.6544C8.68247 10.7175 8.40176 10.7501 8.09497 10.7501H3.90503C3.59803 10.7501 3.31717 10.7176 3.06714 10.6544C3.33237 9.58965 4.51577 8.73499 6.00024 8.73499Z" fill="#3879F0" stroke="#3879F0"/>
<path d="M7.78996 5.79001C7.78996 6.78001 6.98996 7.58499 5.99996 7.58499C5.00996 7.58499 4.20996 6.78001 4.20996 5.79001C4.20996 4.80001 5.00996 4 5.99996 4C6.98996 4 7.78996 4.80001 7.78996 5.79001Z" fill="#3879F0"/>
</svg>
