<svg width="16" height="17" viewBox="0 0 16 17" fill="none" xmlns="http://www.w3.org/2000/svg">
<path d="M8 0C3.584 0 0 3.62924 0 8.10098C0 12.5727 3.584 16.202 8 16.202C12.416 16.202 16 12.5727 16 8.10098C16 3.62924 12.416 0 8 0ZM12 12.354H9.52C9.28 12.354 9.064 12.2163 8.968 11.9894C8.872 11.7626 8.912 11.5115 9.072 11.3333L10.368 9.88319C10.904 9.27562 11.208 8.50603 11.208 7.71213C11.208 6.90203 10.88 6.14054 10.28 5.56537C9.68 4.9902 8.848 4.65806 8 4.65806C7.152 4.65806 6.32 4.9902 5.72 5.56537C5.12 6.14054 4.792 6.90203 4.792 7.71213C4.792 8.50603 5.088 9.27562 5.632 9.88319L6.92 11.3414C7.08 11.5196 7.12 11.7788 7.024 11.9975C6.928 12.2163 6.712 12.3621 6.472 12.3621H4C3.672 12.3621 3.4 12.0867 3.4 11.7545C3.4 11.4224 3.672 11.1388 4 11.1388H5.128L4.736 10.7014C4 9.87509 3.592 8.81387 3.592 7.71213C3.592 6.5861 4.064 5.47626 4.896 4.68237C5.728 3.88037 6.824 3.44292 8 3.44292C9.176 3.44292 10.272 3.88037 11.104 4.68237C11.928 5.47626 12.408 6.5861 12.408 7.71213C12.408 8.80576 12 9.86699 11.264 10.7014L10.872 11.1388H12C12.328 11.1388 12.6 11.4143 12.6 11.7464C12.6 12.0786 12.328 12.354 12 12.354Z" fill="#3879F0"/>
</svg>
