<svg width="16" height="18" viewBox="0 0 16 18" fill="none" xmlns="http://www.w3.org/2000/svg">
<path opacity="0.4" d="M15.1783 4.39471C14.1425 2.27681 12.1407 0.7136 9.82008 0.199253C7.38996 -0.345349 4.90008 0.239594 2.99782 1.79272C1.08559 3.33576 0 5.64528 0 8.11616C0 10.7282 1.54373 13.4613 3.87425 15.0447V15.8818C3.86429 16.1642 3.85433 16.5978 4.19296 16.9508C4.54154 17.3139 5.05944 17.3542 5.46778 17.3542H10.577C11.1148 17.3542 11.5232 17.203 11.802 16.9206C12.1805 16.5272 12.1705 16.023 12.1606 15.7507V15.0447C15.248 12.9369 17.1901 8.48931 15.1783 4.39471Z" fill="#DEEAFF"/>
</svg>
