<svg width="11" height="11" viewBox="0 0 11 11" fill="none" xmlns="http://www.w3.org/2000/svg">
<path d="M10.0696 8.40125C10.0696 8.56625 10.0329 8.73583 9.955 8.90083C9.87708 9.06583 9.77625 9.22167 9.64333 9.36833C9.41875 9.61583 9.17125 9.79458 8.89167 9.90917C8.61667 10.0238 8.31875 10.0833 7.99792 10.0833C7.53042 10.0833 7.03083 9.97333 6.50375 9.74875C5.97667 9.52417 5.44958 9.22167 4.92708 8.84125C4.4 8.45625 3.90042 8.03 3.42375 7.55792C2.95167 7.08125 2.52542 6.58167 2.145 6.05917C1.76917 5.53667 1.46667 5.01417 1.24667 4.49625C1.02667 3.97375 0.916667 3.47417 0.916667 2.9975C0.916667 2.68583 0.971667 2.38792 1.08167 2.11292C1.19167 1.83333 1.36583 1.57667 1.60875 1.3475C1.90208 1.05875 2.22292 0.916667 2.56208 0.916667C2.69042 0.916667 2.81875 0.944167 2.93333 0.999167C3.0525 1.05417 3.15792 1.13667 3.24042 1.25583L4.30375 2.75458C4.38625 2.86917 4.44583 2.97458 4.48708 3.07542C4.52833 3.17167 4.55125 3.26792 4.55125 3.355C4.55125 3.465 4.51917 3.575 4.455 3.68042C4.39542 3.78583 4.30833 3.89583 4.19833 4.00583L3.85 4.36792C3.79958 4.41833 3.77667 4.47792 3.77667 4.55125C3.77667 4.58792 3.78125 4.62 3.79042 4.65667C3.80417 4.69333 3.81792 4.72083 3.82708 4.74833C3.90958 4.89958 4.05167 5.09667 4.25333 5.335C4.45958 5.57333 4.67958 5.81625 4.91792 6.05917C5.16542 6.30208 5.40375 6.52667 5.64667 6.73292C5.885 6.93458 6.08208 7.07208 6.23792 7.15458C6.26083 7.16375 6.28833 7.1775 6.32042 7.19125C6.35708 7.205 6.39375 7.20958 6.435 7.20958C6.51292 7.20958 6.5725 7.18208 6.62292 7.13167L6.97125 6.78792C7.08583 6.67333 7.19583 6.58625 7.30125 6.53125C7.40667 6.46708 7.51208 6.435 7.62667 6.435C7.71375 6.435 7.80542 6.45333 7.90625 6.49458C8.00708 6.53583 8.1125 6.59542 8.22708 6.67333L9.74417 7.75042C9.86333 7.83292 9.94583 7.92917 9.99625 8.04375C10.0421 8.15833 10.0696 8.27292 10.0696 8.40125Z" stroke="white" stroke-width="1.5" stroke-miterlimit="10"/>
<path d="M7.42503 3.575H9.62502M7.42503 3.575V1.375V3.575Z" stroke="white" stroke-width="1.5" stroke-linecap="round" stroke-linejoin="round"/>
</svg>
