<svg width="11" height="11" viewBox="0 0 11 11" fill="none" xmlns="http://www.w3.org/2000/svg">
<path d="M10.0833 4.12504V6.87504C10.0833 8.02087 9.85417 8.82296 9.34084 9.34087L6.41667 6.41671L9.95959 2.87379C10.0421 3.23587 10.0833 3.64837 10.0833 4.12504Z" stroke="white" stroke-width="1.5" stroke-linecap="round" stroke-linejoin="round"/>
<path d="M9.95959 2.87375L2.87374 9.95958C1.49416 9.64333 0.916667 8.69 0.916667 6.875V4.125C0.916667 1.83333 1.83333 0.916667 4.125 0.916667H6.875C8.69 0.916667 9.64334 1.49417 9.95959 2.87375Z" stroke="white" stroke-width="1.5" stroke-linecap="round" stroke-linejoin="round"/>
<path d="M9.34088 9.34084C8.82296 9.85417 8.02088 10.0833 6.87505 10.0833H4.12505C3.64838 10.0833 3.23587 10.0421 2.87379 9.95958L6.41671 6.41667L9.34088 9.34084Z" stroke="white" stroke-width="1.5" stroke-linecap="round" stroke-linejoin="round"/>
<path d="M2.86006 3.65744C3.17172 2.31452 5.18839 2.31452 5.50006 3.65744C5.67881 4.44577 5.1838 5.11494 4.74839 5.52744C4.43214 5.82994 3.93256 5.82994 3.61173 5.52744C3.17631 5.11494 2.67672 4.44577 2.86006 3.65744Z" stroke="white" stroke-width="1.5"/>
<path d="M4.16839 3.98753H4.17251" stroke="white" stroke-width="2" stroke-linecap="round" stroke-linejoin="round"/>
</svg>
